%TF.GenerationSoftware,KiCad,Pcbnew,8.0.2*%
%TF.CreationDate,2024-05-12T23:01:26-04:00*%
%TF.ProjectId,rbmfm,72626d66-6d2e-46b6-9963-61645f706362,rev?*%
%TF.SameCoordinates,Original*%
%TF.FileFunction,Drillmap*%
%TF.FilePolarity,Positive*%
%FSLAX45Y45*%
G04 Gerber Fmt 4.5, Leading zero omitted, Abs format (unit mm)*
G04 Created by KiCad (PCBNEW 8.0.2) date 2024-05-12 23:01:26*
%MOMM*%
%LPD*%
G01*
G04 APERTURE LIST*
%ADD10C,0.100000*%
%ADD11C,0.200000*%
G04 APERTURE END LIST*
D10*
X15750000Y-6250000D02*
G75*
G02*
X16250000Y-6750000I0J-500000D01*
G01*
X11000000Y-6750000D02*
G75*
G02*
X11500000Y-6250000I500000J0D01*
G01*
X11500000Y-16250000D02*
X15750000Y-16250000D01*
X11500000Y-6250000D02*
X15750000Y-6250000D01*
X16250000Y-15750000D02*
G75*
G02*
X15750000Y-16250000I-500000J0D01*
G01*
X16250000Y-6750000D02*
X16250000Y-15750000D01*
X11000000Y-15750000D02*
X11000000Y-6750000D01*
X11500000Y-16250000D02*
G75*
G02*
X11000000Y-15750000I0J500000D01*
G01*
D11*
X11255777Y-16566484D02*
X11255777Y-16366484D01*
X11255777Y-16366484D02*
X11303396Y-16366484D01*
X11303396Y-16366484D02*
X11331967Y-16376008D01*
X11331967Y-16376008D02*
X11351015Y-16395055D01*
X11351015Y-16395055D02*
X11360539Y-16414103D01*
X11360539Y-16414103D02*
X11370062Y-16452198D01*
X11370062Y-16452198D02*
X11370062Y-16480769D01*
X11370062Y-16480769D02*
X11360539Y-16518865D01*
X11360539Y-16518865D02*
X11351015Y-16537912D01*
X11351015Y-16537912D02*
X11331967Y-16556960D01*
X11331967Y-16556960D02*
X11303396Y-16566484D01*
X11303396Y-16566484D02*
X11255777Y-16566484D01*
X11455777Y-16566484D02*
X11455777Y-16433150D01*
X11455777Y-16471246D02*
X11465301Y-16452198D01*
X11465301Y-16452198D02*
X11474824Y-16442674D01*
X11474824Y-16442674D02*
X11493872Y-16433150D01*
X11493872Y-16433150D02*
X11512920Y-16433150D01*
X11579586Y-16566484D02*
X11579586Y-16433150D01*
X11579586Y-16366484D02*
X11570062Y-16376008D01*
X11570062Y-16376008D02*
X11579586Y-16385531D01*
X11579586Y-16385531D02*
X11589110Y-16376008D01*
X11589110Y-16376008D02*
X11579586Y-16366484D01*
X11579586Y-16366484D02*
X11579586Y-16385531D01*
X11703396Y-16566484D02*
X11684348Y-16556960D01*
X11684348Y-16556960D02*
X11674824Y-16537912D01*
X11674824Y-16537912D02*
X11674824Y-16366484D01*
X11808158Y-16566484D02*
X11789110Y-16556960D01*
X11789110Y-16556960D02*
X11779586Y-16537912D01*
X11779586Y-16537912D02*
X11779586Y-16366484D01*
X12036729Y-16566484D02*
X12036729Y-16366484D01*
X12036729Y-16366484D02*
X12103396Y-16509341D01*
X12103396Y-16509341D02*
X12170062Y-16366484D01*
X12170062Y-16366484D02*
X12170062Y-16566484D01*
X12351015Y-16566484D02*
X12351015Y-16461722D01*
X12351015Y-16461722D02*
X12341491Y-16442674D01*
X12341491Y-16442674D02*
X12322443Y-16433150D01*
X12322443Y-16433150D02*
X12284348Y-16433150D01*
X12284348Y-16433150D02*
X12265301Y-16442674D01*
X12351015Y-16556960D02*
X12331967Y-16566484D01*
X12331967Y-16566484D02*
X12284348Y-16566484D01*
X12284348Y-16566484D02*
X12265301Y-16556960D01*
X12265301Y-16556960D02*
X12255777Y-16537912D01*
X12255777Y-16537912D02*
X12255777Y-16518865D01*
X12255777Y-16518865D02*
X12265301Y-16499817D01*
X12265301Y-16499817D02*
X12284348Y-16490293D01*
X12284348Y-16490293D02*
X12331967Y-16490293D01*
X12331967Y-16490293D02*
X12351015Y-16480769D01*
X12446253Y-16433150D02*
X12446253Y-16633150D01*
X12446253Y-16442674D02*
X12465301Y-16433150D01*
X12465301Y-16433150D02*
X12503396Y-16433150D01*
X12503396Y-16433150D02*
X12522443Y-16442674D01*
X12522443Y-16442674D02*
X12531967Y-16452198D01*
X12531967Y-16452198D02*
X12541491Y-16471246D01*
X12541491Y-16471246D02*
X12541491Y-16528388D01*
X12541491Y-16528388D02*
X12531967Y-16547436D01*
X12531967Y-16547436D02*
X12522443Y-16556960D01*
X12522443Y-16556960D02*
X12503396Y-16566484D01*
X12503396Y-16566484D02*
X12465301Y-16566484D01*
X12465301Y-16566484D02*
X12446253Y-16556960D01*
X12627205Y-16547436D02*
X12636729Y-16556960D01*
X12636729Y-16556960D02*
X12627205Y-16566484D01*
X12627205Y-16566484D02*
X12617682Y-16556960D01*
X12617682Y-16556960D02*
X12627205Y-16547436D01*
X12627205Y-16547436D02*
X12627205Y-16566484D01*
X12627205Y-16442674D02*
X12636729Y-16452198D01*
X12636729Y-16452198D02*
X12627205Y-16461722D01*
X12627205Y-16461722D02*
X12617682Y-16452198D01*
X12617682Y-16452198D02*
X12627205Y-16442674D01*
X12627205Y-16442674D02*
X12627205Y-16461722D01*
M02*
