%TF.GenerationSoftware,KiCad,Pcbnew,8.0.2*%
%TF.CreationDate,2024-05-12T23:01:34-04:00*%
%TF.ProjectId,rbmfm,72626d66-6d2e-46b6-9963-61645f706362,rev?*%
%TF.SameCoordinates,Original*%
%TF.FileFunction,Soldermask,Top*%
%TF.FilePolarity,Negative*%
%FSLAX46Y46*%
G04 Gerber Fmt 4.6, Leading zero omitted, Abs format (unit mm)*
G04 Created by KiCad (PCBNEW 8.0.2) date 2024-05-12 23:01:34*
%MOMM*%
%LPD*%
G01*
G04 APERTURE LIST*
G04 Aperture macros list*
%AMRoundRect*
0 Rectangle with rounded corners*
0 $1 Rounding radius*
0 $2 $3 $4 $5 $6 $7 $8 $9 X,Y pos of 4 corners*
0 Add a 4 corners polygon primitive as box body*
4,1,4,$2,$3,$4,$5,$6,$7,$8,$9,$2,$3,0*
0 Add four circle primitives for the rounded corners*
1,1,$1+$1,$2,$3*
1,1,$1+$1,$4,$5*
1,1,$1+$1,$6,$7*
1,1,$1+$1,$8,$9*
0 Add four rect primitives between the rounded corners*
20,1,$1+$1,$2,$3,$4,$5,0*
20,1,$1+$1,$4,$5,$6,$7,0*
20,1,$1+$1,$6,$7,$8,$9,0*
20,1,$1+$1,$8,$9,$2,$3,0*%
G04 Aperture macros list end*
%ADD10RoundRect,0.250000X-0.600000X-0.600000X0.600000X-0.600000X0.600000X0.600000X-0.600000X0.600000X0*%
%ADD11C,1.700000*%
G04 APERTURE END LIST*
D10*
%TO.C,J1*%
X117750000Y-98470000D03*
D11*
X120290000Y-98470000D03*
X117750000Y-101010000D03*
X120290000Y-101010000D03*
X117750000Y-103550000D03*
X120290000Y-103550000D03*
X117750000Y-106090000D03*
X120290000Y-106090000D03*
X117750000Y-108630000D03*
X120290000Y-108630000D03*
X117750000Y-111170000D03*
X120290000Y-111170000D03*
X117750000Y-113710000D03*
X120290000Y-113710000D03*
X117750000Y-116250000D03*
X120290000Y-116250000D03*
X117750000Y-118790000D03*
X120290000Y-118790000D03*
X117750000Y-121330000D03*
X120290000Y-121330000D03*
X117750000Y-123870000D03*
X120290000Y-123870000D03*
X117750000Y-126410000D03*
X120290000Y-126410000D03*
X117750000Y-128950000D03*
X120290000Y-128950000D03*
X117750000Y-131490000D03*
X120290000Y-131490000D03*
X117750000Y-134030000D03*
X120290000Y-134030000D03*
X117750000Y-136570000D03*
X120290000Y-136570000D03*
X117750000Y-139110000D03*
X120290000Y-139110000D03*
%TD*%
D10*
%TO.C,J3*%
X151710000Y-129840000D03*
D11*
X154250000Y-129840000D03*
X151710000Y-132380000D03*
X154250000Y-132380000D03*
X151710000Y-134920000D03*
X154250000Y-134920000D03*
X151710000Y-137460000D03*
X154250000Y-137460000D03*
X151710000Y-140000000D03*
X154250000Y-140000000D03*
X151710000Y-142540000D03*
X154250000Y-142540000D03*
X151710000Y-145080000D03*
X154250000Y-145080000D03*
X151710000Y-147620000D03*
X154250000Y-147620000D03*
X151710000Y-150160000D03*
X154250000Y-150160000D03*
X151710000Y-152700000D03*
X154250000Y-152700000D03*
%TD*%
D10*
%TO.C,J2*%
X151460000Y-70610000D03*
D11*
X154000000Y-70610000D03*
X151460000Y-73150000D03*
X154000000Y-73150000D03*
X151460000Y-75690000D03*
X154000000Y-75690000D03*
X151460000Y-78230000D03*
X154000000Y-78230000D03*
X151460000Y-80770000D03*
X154000000Y-80770000D03*
X151460000Y-83310000D03*
X154000000Y-83310000D03*
X151460000Y-85850000D03*
X154000000Y-85850000D03*
X151460000Y-88390000D03*
X154000000Y-88390000D03*
X151460000Y-90930000D03*
X154000000Y-90930000D03*
X151460000Y-93470000D03*
X154000000Y-93470000D03*
X151460000Y-96010000D03*
X154000000Y-96010000D03*
X151460000Y-98550000D03*
X154000000Y-98550000D03*
X151460000Y-101090000D03*
X154000000Y-101090000D03*
X151460000Y-103630000D03*
X154000000Y-103630000D03*
X151460000Y-106170000D03*
X154000000Y-106170000D03*
X151460000Y-108710000D03*
X154000000Y-108710000D03*
X151460000Y-111250000D03*
X154000000Y-111250000D03*
%TD*%
M02*
