%TF.GenerationSoftware,KiCad,Pcbnew,8.0.2*%
%TF.CreationDate,2024-05-12T23:01:26-04:00*%
%TF.ProjectId,rbmfm,72626d66-6d2e-46b6-9963-61645f706362,rev?*%
%TF.SameCoordinates,Original*%
%TF.FileFunction,Drillmap*%
%TF.FilePolarity,Positive*%
%FSLAX45Y45*%
G04 Gerber Fmt 4.5, Leading zero omitted, Abs format (unit mm)*
G04 Created by KiCad (PCBNEW 8.0.2) date 2024-05-12 23:01:26*
%MOMM*%
%LPD*%
G01*
G04 APERTURE LIST*
%ADD10C,0.100000*%
%ADD11C,0.200000*%
G04 APERTURE END LIST*
D10*
X15750000Y-6250000D02*
G75*
G02*
X16250000Y-6750000I0J-500000D01*
G01*
X11000000Y-6750000D02*
G75*
G02*
X11500000Y-6250000I500000J0D01*
G01*
X11500000Y-16250000D02*
X15750000Y-16250000D01*
X11500000Y-6250000D02*
X15750000Y-6250000D01*
X16250000Y-15750000D02*
G75*
G02*
X15750000Y-16250000I-500000J0D01*
G01*
X16250000Y-6750000D02*
X16250000Y-15750000D01*
X11000000Y-15750000D02*
X11000000Y-6750000D01*
X11500000Y-16250000D02*
G75*
G02*
X11000000Y-15750000I0J500000D01*
G01*
D11*
D10*
X11725000Y-9797000D02*
X11825000Y-9897000D01*
X11825000Y-9797000D02*
X11725000Y-9897000D01*
X11725000Y-10051000D02*
X11825000Y-10151000D01*
X11825000Y-10051000D02*
X11725000Y-10151000D01*
X11725000Y-10305000D02*
X11825000Y-10405000D01*
X11825000Y-10305000D02*
X11725000Y-10405000D01*
X11725000Y-10559000D02*
X11825000Y-10659000D01*
X11825000Y-10559000D02*
X11725000Y-10659000D01*
X11725000Y-10813000D02*
X11825000Y-10913000D01*
X11825000Y-10813000D02*
X11725000Y-10913000D01*
X11725000Y-11067000D02*
X11825000Y-11167000D01*
X11825000Y-11067000D02*
X11725000Y-11167000D01*
X11725000Y-11321000D02*
X11825000Y-11421000D01*
X11825000Y-11321000D02*
X11725000Y-11421000D01*
X11725000Y-11575000D02*
X11825000Y-11675000D01*
X11825000Y-11575000D02*
X11725000Y-11675000D01*
X11725000Y-11829000D02*
X11825000Y-11929000D01*
X11825000Y-11829000D02*
X11725000Y-11929000D01*
X11725000Y-12083000D02*
X11825000Y-12183000D01*
X11825000Y-12083000D02*
X11725000Y-12183000D01*
X11725000Y-12337000D02*
X11825000Y-12437000D01*
X11825000Y-12337000D02*
X11725000Y-12437000D01*
X11725000Y-12591000D02*
X11825000Y-12691000D01*
X11825000Y-12591000D02*
X11725000Y-12691000D01*
X11725000Y-12845000D02*
X11825000Y-12945000D01*
X11825000Y-12845000D02*
X11725000Y-12945000D01*
X11725000Y-13099000D02*
X11825000Y-13199000D01*
X11825000Y-13099000D02*
X11725000Y-13199000D01*
X11725000Y-13353000D02*
X11825000Y-13453000D01*
X11825000Y-13353000D02*
X11725000Y-13453000D01*
X11725000Y-13607000D02*
X11825000Y-13707000D01*
X11825000Y-13607000D02*
X11725000Y-13707000D01*
X11725000Y-13861000D02*
X11825000Y-13961000D01*
X11825000Y-13861000D02*
X11725000Y-13961000D01*
X11979000Y-9797000D02*
X12079000Y-9897000D01*
X12079000Y-9797000D02*
X11979000Y-9897000D01*
X11979000Y-10051000D02*
X12079000Y-10151000D01*
X12079000Y-10051000D02*
X11979000Y-10151000D01*
X11979000Y-10305000D02*
X12079000Y-10405000D01*
X12079000Y-10305000D02*
X11979000Y-10405000D01*
X11979000Y-10559000D02*
X12079000Y-10659000D01*
X12079000Y-10559000D02*
X11979000Y-10659000D01*
X11979000Y-10813000D02*
X12079000Y-10913000D01*
X12079000Y-10813000D02*
X11979000Y-10913000D01*
X11979000Y-11067000D02*
X12079000Y-11167000D01*
X12079000Y-11067000D02*
X11979000Y-11167000D01*
X11979000Y-11321000D02*
X12079000Y-11421000D01*
X12079000Y-11321000D02*
X11979000Y-11421000D01*
X11979000Y-11575000D02*
X12079000Y-11675000D01*
X12079000Y-11575000D02*
X11979000Y-11675000D01*
X11979000Y-11829000D02*
X12079000Y-11929000D01*
X12079000Y-11829000D02*
X11979000Y-11929000D01*
X11979000Y-12083000D02*
X12079000Y-12183000D01*
X12079000Y-12083000D02*
X11979000Y-12183000D01*
X11979000Y-12337000D02*
X12079000Y-12437000D01*
X12079000Y-12337000D02*
X11979000Y-12437000D01*
X11979000Y-12591000D02*
X12079000Y-12691000D01*
X12079000Y-12591000D02*
X11979000Y-12691000D01*
X11979000Y-12845000D02*
X12079000Y-12945000D01*
X12079000Y-12845000D02*
X11979000Y-12945000D01*
X11979000Y-13099000D02*
X12079000Y-13199000D01*
X12079000Y-13099000D02*
X11979000Y-13199000D01*
X11979000Y-13353000D02*
X12079000Y-13453000D01*
X12079000Y-13353000D02*
X11979000Y-13453000D01*
X11979000Y-13607000D02*
X12079000Y-13707000D01*
X12079000Y-13607000D02*
X11979000Y-13707000D01*
X11979000Y-13861000D02*
X12079000Y-13961000D01*
X12079000Y-13861000D02*
X11979000Y-13961000D01*
X15096000Y-7011000D02*
X15196000Y-7111000D01*
X15196000Y-7011000D02*
X15096000Y-7111000D01*
X15096000Y-7265000D02*
X15196000Y-7365000D01*
X15196000Y-7265000D02*
X15096000Y-7365000D01*
X15096000Y-7519000D02*
X15196000Y-7619000D01*
X15196000Y-7519000D02*
X15096000Y-7619000D01*
X15096000Y-7773000D02*
X15196000Y-7873000D01*
X15196000Y-7773000D02*
X15096000Y-7873000D01*
X15096000Y-8027000D02*
X15196000Y-8127000D01*
X15196000Y-8027000D02*
X15096000Y-8127000D01*
X15096000Y-8281000D02*
X15196000Y-8381000D01*
X15196000Y-8281000D02*
X15096000Y-8381000D01*
X15096000Y-8535000D02*
X15196000Y-8635000D01*
X15196000Y-8535000D02*
X15096000Y-8635000D01*
X15096000Y-8789000D02*
X15196000Y-8889000D01*
X15196000Y-8789000D02*
X15096000Y-8889000D01*
X15096000Y-9043000D02*
X15196000Y-9143000D01*
X15196000Y-9043000D02*
X15096000Y-9143000D01*
X15096000Y-9297000D02*
X15196000Y-9397000D01*
X15196000Y-9297000D02*
X15096000Y-9397000D01*
X15096000Y-9551000D02*
X15196000Y-9651000D01*
X15196000Y-9551000D02*
X15096000Y-9651000D01*
X15096000Y-9805000D02*
X15196000Y-9905000D01*
X15196000Y-9805000D02*
X15096000Y-9905000D01*
X15096000Y-10059000D02*
X15196000Y-10159000D01*
X15196000Y-10059000D02*
X15096000Y-10159000D01*
X15096000Y-10313000D02*
X15196000Y-10413000D01*
X15196000Y-10313000D02*
X15096000Y-10413000D01*
X15096000Y-10567000D02*
X15196000Y-10667000D01*
X15196000Y-10567000D02*
X15096000Y-10667000D01*
X15096000Y-10821000D02*
X15196000Y-10921000D01*
X15196000Y-10821000D02*
X15096000Y-10921000D01*
X15096000Y-11075000D02*
X15196000Y-11175000D01*
X15196000Y-11075000D02*
X15096000Y-11175000D01*
X15121000Y-12934000D02*
X15221000Y-13034000D01*
X15221000Y-12934000D02*
X15121000Y-13034000D01*
X15121000Y-13188000D02*
X15221000Y-13288000D01*
X15221000Y-13188000D02*
X15121000Y-13288000D01*
X15121000Y-13442000D02*
X15221000Y-13542000D01*
X15221000Y-13442000D02*
X15121000Y-13542000D01*
X15121000Y-13696000D02*
X15221000Y-13796000D01*
X15221000Y-13696000D02*
X15121000Y-13796000D01*
X15121000Y-13950000D02*
X15221000Y-14050000D01*
X15221000Y-13950000D02*
X15121000Y-14050000D01*
X15121000Y-14204000D02*
X15221000Y-14304000D01*
X15221000Y-14204000D02*
X15121000Y-14304000D01*
X15121000Y-14458000D02*
X15221000Y-14558000D01*
X15221000Y-14458000D02*
X15121000Y-14558000D01*
X15121000Y-14712000D02*
X15221000Y-14812000D01*
X15221000Y-14712000D02*
X15121000Y-14812000D01*
X15121000Y-14966000D02*
X15221000Y-15066000D01*
X15221000Y-14966000D02*
X15121000Y-15066000D01*
X15121000Y-15220000D02*
X15221000Y-15320000D01*
X15221000Y-15220000D02*
X15121000Y-15320000D01*
X15350000Y-7011000D02*
X15450000Y-7111000D01*
X15450000Y-7011000D02*
X15350000Y-7111000D01*
X15350000Y-7265000D02*
X15450000Y-7365000D01*
X15450000Y-7265000D02*
X15350000Y-7365000D01*
X15350000Y-7519000D02*
X15450000Y-7619000D01*
X15450000Y-7519000D02*
X15350000Y-7619000D01*
X15350000Y-7773000D02*
X15450000Y-7873000D01*
X15450000Y-7773000D02*
X15350000Y-7873000D01*
X15350000Y-8027000D02*
X15450000Y-8127000D01*
X15450000Y-8027000D02*
X15350000Y-8127000D01*
X15350000Y-8281000D02*
X15450000Y-8381000D01*
X15450000Y-8281000D02*
X15350000Y-8381000D01*
X15350000Y-8535000D02*
X15450000Y-8635000D01*
X15450000Y-8535000D02*
X15350000Y-8635000D01*
X15350000Y-8789000D02*
X15450000Y-8889000D01*
X15450000Y-8789000D02*
X15350000Y-8889000D01*
X15350000Y-9043000D02*
X15450000Y-9143000D01*
X15450000Y-9043000D02*
X15350000Y-9143000D01*
X15350000Y-9297000D02*
X15450000Y-9397000D01*
X15450000Y-9297000D02*
X15350000Y-9397000D01*
X15350000Y-9551000D02*
X15450000Y-9651000D01*
X15450000Y-9551000D02*
X15350000Y-9651000D01*
X15350000Y-9805000D02*
X15450000Y-9905000D01*
X15450000Y-9805000D02*
X15350000Y-9905000D01*
X15350000Y-10059000D02*
X15450000Y-10159000D01*
X15450000Y-10059000D02*
X15350000Y-10159000D01*
X15350000Y-10313000D02*
X15450000Y-10413000D01*
X15450000Y-10313000D02*
X15350000Y-10413000D01*
X15350000Y-10567000D02*
X15450000Y-10667000D01*
X15450000Y-10567000D02*
X15350000Y-10667000D01*
X15350000Y-10821000D02*
X15450000Y-10921000D01*
X15450000Y-10821000D02*
X15350000Y-10921000D01*
X15350000Y-11075000D02*
X15450000Y-11175000D01*
X15450000Y-11075000D02*
X15350000Y-11175000D01*
X15375000Y-12934000D02*
X15475000Y-13034000D01*
X15475000Y-12934000D02*
X15375000Y-13034000D01*
X15375000Y-13188000D02*
X15475000Y-13288000D01*
X15475000Y-13188000D02*
X15375000Y-13288000D01*
X15375000Y-13442000D02*
X15475000Y-13542000D01*
X15475000Y-13442000D02*
X15375000Y-13542000D01*
X15375000Y-13696000D02*
X15475000Y-13796000D01*
X15475000Y-13696000D02*
X15375000Y-13796000D01*
X15375000Y-13950000D02*
X15475000Y-14050000D01*
X15475000Y-13950000D02*
X15375000Y-14050000D01*
X15375000Y-14204000D02*
X15475000Y-14304000D01*
X15475000Y-14204000D02*
X15375000Y-14304000D01*
X15375000Y-14458000D02*
X15475000Y-14558000D01*
X15475000Y-14458000D02*
X15375000Y-14558000D01*
X15375000Y-14712000D02*
X15475000Y-14812000D01*
X15475000Y-14712000D02*
X15375000Y-14812000D01*
X15375000Y-14966000D02*
X15475000Y-15066000D01*
X15475000Y-14966000D02*
X15375000Y-15066000D01*
X15375000Y-15220000D02*
X15475000Y-15320000D01*
X15475000Y-15220000D02*
X15375000Y-15320000D01*
D11*
X11255777Y-16566484D02*
X11255777Y-16366484D01*
X11255777Y-16366484D02*
X11303396Y-16366484D01*
X11303396Y-16366484D02*
X11331967Y-16376008D01*
X11331967Y-16376008D02*
X11351015Y-16395055D01*
X11351015Y-16395055D02*
X11360539Y-16414103D01*
X11360539Y-16414103D02*
X11370062Y-16452198D01*
X11370062Y-16452198D02*
X11370062Y-16480769D01*
X11370062Y-16480769D02*
X11360539Y-16518865D01*
X11360539Y-16518865D02*
X11351015Y-16537912D01*
X11351015Y-16537912D02*
X11331967Y-16556960D01*
X11331967Y-16556960D02*
X11303396Y-16566484D01*
X11303396Y-16566484D02*
X11255777Y-16566484D01*
X11455777Y-16566484D02*
X11455777Y-16433150D01*
X11455777Y-16471246D02*
X11465301Y-16452198D01*
X11465301Y-16452198D02*
X11474824Y-16442674D01*
X11474824Y-16442674D02*
X11493872Y-16433150D01*
X11493872Y-16433150D02*
X11512920Y-16433150D01*
X11579586Y-16566484D02*
X11579586Y-16433150D01*
X11579586Y-16366484D02*
X11570062Y-16376008D01*
X11570062Y-16376008D02*
X11579586Y-16385531D01*
X11579586Y-16385531D02*
X11589110Y-16376008D01*
X11589110Y-16376008D02*
X11579586Y-16366484D01*
X11579586Y-16366484D02*
X11579586Y-16385531D01*
X11703396Y-16566484D02*
X11684348Y-16556960D01*
X11684348Y-16556960D02*
X11674824Y-16537912D01*
X11674824Y-16537912D02*
X11674824Y-16366484D01*
X11808158Y-16566484D02*
X11789110Y-16556960D01*
X11789110Y-16556960D02*
X11779586Y-16537912D01*
X11779586Y-16537912D02*
X11779586Y-16366484D01*
X12036729Y-16566484D02*
X12036729Y-16366484D01*
X12036729Y-16366484D02*
X12103396Y-16509341D01*
X12103396Y-16509341D02*
X12170062Y-16366484D01*
X12170062Y-16366484D02*
X12170062Y-16566484D01*
X12351015Y-16566484D02*
X12351015Y-16461722D01*
X12351015Y-16461722D02*
X12341491Y-16442674D01*
X12341491Y-16442674D02*
X12322443Y-16433150D01*
X12322443Y-16433150D02*
X12284348Y-16433150D01*
X12284348Y-16433150D02*
X12265301Y-16442674D01*
X12351015Y-16556960D02*
X12331967Y-16566484D01*
X12331967Y-16566484D02*
X12284348Y-16566484D01*
X12284348Y-16566484D02*
X12265301Y-16556960D01*
X12265301Y-16556960D02*
X12255777Y-16537912D01*
X12255777Y-16537912D02*
X12255777Y-16518865D01*
X12255777Y-16518865D02*
X12265301Y-16499817D01*
X12265301Y-16499817D02*
X12284348Y-16490293D01*
X12284348Y-16490293D02*
X12331967Y-16490293D01*
X12331967Y-16490293D02*
X12351015Y-16480769D01*
X12446253Y-16433150D02*
X12446253Y-16633150D01*
X12446253Y-16442674D02*
X12465301Y-16433150D01*
X12465301Y-16433150D02*
X12503396Y-16433150D01*
X12503396Y-16433150D02*
X12522443Y-16442674D01*
X12522443Y-16442674D02*
X12531967Y-16452198D01*
X12531967Y-16452198D02*
X12541491Y-16471246D01*
X12541491Y-16471246D02*
X12541491Y-16528388D01*
X12541491Y-16528388D02*
X12531967Y-16547436D01*
X12531967Y-16547436D02*
X12522443Y-16556960D01*
X12522443Y-16556960D02*
X12503396Y-16566484D01*
X12503396Y-16566484D02*
X12465301Y-16566484D01*
X12465301Y-16566484D02*
X12446253Y-16556960D01*
X12627205Y-16547436D02*
X12636729Y-16556960D01*
X12636729Y-16556960D02*
X12627205Y-16566484D01*
X12627205Y-16566484D02*
X12617682Y-16556960D01*
X12617682Y-16556960D02*
X12627205Y-16547436D01*
X12627205Y-16547436D02*
X12627205Y-16566484D01*
X12627205Y-16442674D02*
X12636729Y-16452198D01*
X12636729Y-16452198D02*
X12627205Y-16461722D01*
X12627205Y-16461722D02*
X12617682Y-16452198D01*
X12617682Y-16452198D02*
X12627205Y-16442674D01*
X12627205Y-16442674D02*
X12627205Y-16461722D01*
D10*
X10895000Y-16845000D02*
X10995000Y-16945000D01*
X10995000Y-16845000D02*
X10895000Y-16945000D01*
D11*
X11360539Y-16986484D02*
X11246253Y-16986484D01*
X11303396Y-16986484D02*
X11303396Y-16786484D01*
X11303396Y-16786484D02*
X11284348Y-16815055D01*
X11284348Y-16815055D02*
X11265301Y-16834103D01*
X11265301Y-16834103D02*
X11246253Y-16843627D01*
X11446253Y-16967436D02*
X11455777Y-16976960D01*
X11455777Y-16976960D02*
X11446253Y-16986484D01*
X11446253Y-16986484D02*
X11436729Y-16976960D01*
X11436729Y-16976960D02*
X11446253Y-16967436D01*
X11446253Y-16967436D02*
X11446253Y-16986484D01*
X11579586Y-16786484D02*
X11598634Y-16786484D01*
X11598634Y-16786484D02*
X11617682Y-16796008D01*
X11617682Y-16796008D02*
X11627205Y-16805531D01*
X11627205Y-16805531D02*
X11636729Y-16824579D01*
X11636729Y-16824579D02*
X11646253Y-16862674D01*
X11646253Y-16862674D02*
X11646253Y-16910293D01*
X11646253Y-16910293D02*
X11636729Y-16948389D01*
X11636729Y-16948389D02*
X11627205Y-16967436D01*
X11627205Y-16967436D02*
X11617682Y-16976960D01*
X11617682Y-16976960D02*
X11598634Y-16986484D01*
X11598634Y-16986484D02*
X11579586Y-16986484D01*
X11579586Y-16986484D02*
X11560539Y-16976960D01*
X11560539Y-16976960D02*
X11551015Y-16967436D01*
X11551015Y-16967436D02*
X11541491Y-16948389D01*
X11541491Y-16948389D02*
X11531967Y-16910293D01*
X11531967Y-16910293D02*
X11531967Y-16862674D01*
X11531967Y-16862674D02*
X11541491Y-16824579D01*
X11541491Y-16824579D02*
X11551015Y-16805531D01*
X11551015Y-16805531D02*
X11560539Y-16796008D01*
X11560539Y-16796008D02*
X11579586Y-16786484D01*
X11770062Y-16786484D02*
X11789110Y-16786484D01*
X11789110Y-16786484D02*
X11808158Y-16796008D01*
X11808158Y-16796008D02*
X11817682Y-16805531D01*
X11817682Y-16805531D02*
X11827205Y-16824579D01*
X11827205Y-16824579D02*
X11836729Y-16862674D01*
X11836729Y-16862674D02*
X11836729Y-16910293D01*
X11836729Y-16910293D02*
X11827205Y-16948389D01*
X11827205Y-16948389D02*
X11817682Y-16967436D01*
X11817682Y-16967436D02*
X11808158Y-16976960D01*
X11808158Y-16976960D02*
X11789110Y-16986484D01*
X11789110Y-16986484D02*
X11770062Y-16986484D01*
X11770062Y-16986484D02*
X11751015Y-16976960D01*
X11751015Y-16976960D02*
X11741491Y-16967436D01*
X11741491Y-16967436D02*
X11731967Y-16948389D01*
X11731967Y-16948389D02*
X11722443Y-16910293D01*
X11722443Y-16910293D02*
X11722443Y-16862674D01*
X11722443Y-16862674D02*
X11731967Y-16824579D01*
X11731967Y-16824579D02*
X11741491Y-16805531D01*
X11741491Y-16805531D02*
X11751015Y-16796008D01*
X11751015Y-16796008D02*
X11770062Y-16786484D01*
X11960539Y-16786484D02*
X11979586Y-16786484D01*
X11979586Y-16786484D02*
X11998634Y-16796008D01*
X11998634Y-16796008D02*
X12008158Y-16805531D01*
X12008158Y-16805531D02*
X12017682Y-16824579D01*
X12017682Y-16824579D02*
X12027205Y-16862674D01*
X12027205Y-16862674D02*
X12027205Y-16910293D01*
X12027205Y-16910293D02*
X12017682Y-16948389D01*
X12017682Y-16948389D02*
X12008158Y-16967436D01*
X12008158Y-16967436D02*
X11998634Y-16976960D01*
X11998634Y-16976960D02*
X11979586Y-16986484D01*
X11979586Y-16986484D02*
X11960539Y-16986484D01*
X11960539Y-16986484D02*
X11941491Y-16976960D01*
X11941491Y-16976960D02*
X11931967Y-16967436D01*
X11931967Y-16967436D02*
X11922443Y-16948389D01*
X11922443Y-16948389D02*
X11912920Y-16910293D01*
X11912920Y-16910293D02*
X11912920Y-16862674D01*
X11912920Y-16862674D02*
X11922443Y-16824579D01*
X11922443Y-16824579D02*
X11931967Y-16805531D01*
X11931967Y-16805531D02*
X11941491Y-16796008D01*
X11941491Y-16796008D02*
X11960539Y-16786484D01*
X12112920Y-16986484D02*
X12112920Y-16853150D01*
X12112920Y-16872198D02*
X12122443Y-16862674D01*
X12122443Y-16862674D02*
X12141491Y-16853150D01*
X12141491Y-16853150D02*
X12170063Y-16853150D01*
X12170063Y-16853150D02*
X12189110Y-16862674D01*
X12189110Y-16862674D02*
X12198634Y-16881722D01*
X12198634Y-16881722D02*
X12198634Y-16986484D01*
X12198634Y-16881722D02*
X12208158Y-16862674D01*
X12208158Y-16862674D02*
X12227205Y-16853150D01*
X12227205Y-16853150D02*
X12255777Y-16853150D01*
X12255777Y-16853150D02*
X12274824Y-16862674D01*
X12274824Y-16862674D02*
X12284348Y-16881722D01*
X12284348Y-16881722D02*
X12284348Y-16986484D01*
X12379586Y-16986484D02*
X12379586Y-16853150D01*
X12379586Y-16872198D02*
X12389110Y-16862674D01*
X12389110Y-16862674D02*
X12408158Y-16853150D01*
X12408158Y-16853150D02*
X12436729Y-16853150D01*
X12436729Y-16853150D02*
X12455777Y-16862674D01*
X12455777Y-16862674D02*
X12465301Y-16881722D01*
X12465301Y-16881722D02*
X12465301Y-16986484D01*
X12465301Y-16881722D02*
X12474824Y-16862674D01*
X12474824Y-16862674D02*
X12493872Y-16853150D01*
X12493872Y-16853150D02*
X12522443Y-16853150D01*
X12522443Y-16853150D02*
X12541491Y-16862674D01*
X12541491Y-16862674D02*
X12551015Y-16881722D01*
X12551015Y-16881722D02*
X12551015Y-16986484D01*
X12941491Y-16776960D02*
X12770063Y-17034103D01*
X13198634Y-16786484D02*
X13217682Y-16786484D01*
X13217682Y-16786484D02*
X13236729Y-16796008D01*
X13236729Y-16796008D02*
X13246253Y-16805531D01*
X13246253Y-16805531D02*
X13255777Y-16824579D01*
X13255777Y-16824579D02*
X13265301Y-16862674D01*
X13265301Y-16862674D02*
X13265301Y-16910293D01*
X13265301Y-16910293D02*
X13255777Y-16948389D01*
X13255777Y-16948389D02*
X13246253Y-16967436D01*
X13246253Y-16967436D02*
X13236729Y-16976960D01*
X13236729Y-16976960D02*
X13217682Y-16986484D01*
X13217682Y-16986484D02*
X13198634Y-16986484D01*
X13198634Y-16986484D02*
X13179586Y-16976960D01*
X13179586Y-16976960D02*
X13170063Y-16967436D01*
X13170063Y-16967436D02*
X13160539Y-16948389D01*
X13160539Y-16948389D02*
X13151015Y-16910293D01*
X13151015Y-16910293D02*
X13151015Y-16862674D01*
X13151015Y-16862674D02*
X13160539Y-16824579D01*
X13160539Y-16824579D02*
X13170063Y-16805531D01*
X13170063Y-16805531D02*
X13179586Y-16796008D01*
X13179586Y-16796008D02*
X13198634Y-16786484D01*
X13351015Y-16967436D02*
X13360539Y-16976960D01*
X13360539Y-16976960D02*
X13351015Y-16986484D01*
X13351015Y-16986484D02*
X13341491Y-16976960D01*
X13341491Y-16976960D02*
X13351015Y-16967436D01*
X13351015Y-16967436D02*
X13351015Y-16986484D01*
X13484348Y-16786484D02*
X13503396Y-16786484D01*
X13503396Y-16786484D02*
X13522444Y-16796008D01*
X13522444Y-16796008D02*
X13531967Y-16805531D01*
X13531967Y-16805531D02*
X13541491Y-16824579D01*
X13541491Y-16824579D02*
X13551015Y-16862674D01*
X13551015Y-16862674D02*
X13551015Y-16910293D01*
X13551015Y-16910293D02*
X13541491Y-16948389D01*
X13541491Y-16948389D02*
X13531967Y-16967436D01*
X13531967Y-16967436D02*
X13522444Y-16976960D01*
X13522444Y-16976960D02*
X13503396Y-16986484D01*
X13503396Y-16986484D02*
X13484348Y-16986484D01*
X13484348Y-16986484D02*
X13465301Y-16976960D01*
X13465301Y-16976960D02*
X13455777Y-16967436D01*
X13455777Y-16967436D02*
X13446253Y-16948389D01*
X13446253Y-16948389D02*
X13436729Y-16910293D01*
X13436729Y-16910293D02*
X13436729Y-16862674D01*
X13436729Y-16862674D02*
X13446253Y-16824579D01*
X13446253Y-16824579D02*
X13455777Y-16805531D01*
X13455777Y-16805531D02*
X13465301Y-16796008D01*
X13465301Y-16796008D02*
X13484348Y-16786484D01*
X13617682Y-16786484D02*
X13741491Y-16786484D01*
X13741491Y-16786484D02*
X13674825Y-16862674D01*
X13674825Y-16862674D02*
X13703396Y-16862674D01*
X13703396Y-16862674D02*
X13722444Y-16872198D01*
X13722444Y-16872198D02*
X13731967Y-16881722D01*
X13731967Y-16881722D02*
X13741491Y-16900770D01*
X13741491Y-16900770D02*
X13741491Y-16948389D01*
X13741491Y-16948389D02*
X13731967Y-16967436D01*
X13731967Y-16967436D02*
X13722444Y-16976960D01*
X13722444Y-16976960D02*
X13703396Y-16986484D01*
X13703396Y-16986484D02*
X13646253Y-16986484D01*
X13646253Y-16986484D02*
X13627206Y-16976960D01*
X13627206Y-16976960D02*
X13617682Y-16967436D01*
X13836729Y-16986484D02*
X13874825Y-16986484D01*
X13874825Y-16986484D02*
X13893872Y-16976960D01*
X13893872Y-16976960D02*
X13903396Y-16967436D01*
X13903396Y-16967436D02*
X13922444Y-16938865D01*
X13922444Y-16938865D02*
X13931967Y-16900770D01*
X13931967Y-16900770D02*
X13931967Y-16824579D01*
X13931967Y-16824579D02*
X13922444Y-16805531D01*
X13922444Y-16805531D02*
X13912920Y-16796008D01*
X13912920Y-16796008D02*
X13893872Y-16786484D01*
X13893872Y-16786484D02*
X13855777Y-16786484D01*
X13855777Y-16786484D02*
X13836729Y-16796008D01*
X13836729Y-16796008D02*
X13827206Y-16805531D01*
X13827206Y-16805531D02*
X13817682Y-16824579D01*
X13817682Y-16824579D02*
X13817682Y-16872198D01*
X13817682Y-16872198D02*
X13827206Y-16891246D01*
X13827206Y-16891246D02*
X13836729Y-16900770D01*
X13836729Y-16900770D02*
X13855777Y-16910293D01*
X13855777Y-16910293D02*
X13893872Y-16910293D01*
X13893872Y-16910293D02*
X13912920Y-16900770D01*
X13912920Y-16900770D02*
X13922444Y-16891246D01*
X13922444Y-16891246D02*
X13931967Y-16872198D01*
X14103396Y-16853150D02*
X14103396Y-16986484D01*
X14055777Y-16776960D02*
X14008158Y-16919817D01*
X14008158Y-16919817D02*
X14131967Y-16919817D01*
X14198634Y-16786484D02*
X14198634Y-16824579D01*
X14274825Y-16786484D02*
X14274825Y-16824579D01*
X14570063Y-17062674D02*
X14560539Y-17053150D01*
X14560539Y-17053150D02*
X14541491Y-17024579D01*
X14541491Y-17024579D02*
X14531968Y-17005531D01*
X14531968Y-17005531D02*
X14522444Y-16976960D01*
X14522444Y-16976960D02*
X14512920Y-16929341D01*
X14512920Y-16929341D02*
X14512920Y-16891246D01*
X14512920Y-16891246D02*
X14522444Y-16843627D01*
X14522444Y-16843627D02*
X14531968Y-16815055D01*
X14531968Y-16815055D02*
X14541491Y-16796008D01*
X14541491Y-16796008D02*
X14560539Y-16767436D01*
X14560539Y-16767436D02*
X14570063Y-16757912D01*
X14674825Y-16872198D02*
X14655777Y-16862674D01*
X14655777Y-16862674D02*
X14646253Y-16853150D01*
X14646253Y-16853150D02*
X14636729Y-16834103D01*
X14636729Y-16834103D02*
X14636729Y-16824579D01*
X14636729Y-16824579D02*
X14646253Y-16805531D01*
X14646253Y-16805531D02*
X14655777Y-16796008D01*
X14655777Y-16796008D02*
X14674825Y-16786484D01*
X14674825Y-16786484D02*
X14712920Y-16786484D01*
X14712920Y-16786484D02*
X14731968Y-16796008D01*
X14731968Y-16796008D02*
X14741491Y-16805531D01*
X14741491Y-16805531D02*
X14751015Y-16824579D01*
X14751015Y-16824579D02*
X14751015Y-16834103D01*
X14751015Y-16834103D02*
X14741491Y-16853150D01*
X14741491Y-16853150D02*
X14731968Y-16862674D01*
X14731968Y-16862674D02*
X14712920Y-16872198D01*
X14712920Y-16872198D02*
X14674825Y-16872198D01*
X14674825Y-16872198D02*
X14655777Y-16881722D01*
X14655777Y-16881722D02*
X14646253Y-16891246D01*
X14646253Y-16891246D02*
X14636729Y-16910293D01*
X14636729Y-16910293D02*
X14636729Y-16948389D01*
X14636729Y-16948389D02*
X14646253Y-16967436D01*
X14646253Y-16967436D02*
X14655777Y-16976960D01*
X14655777Y-16976960D02*
X14674825Y-16986484D01*
X14674825Y-16986484D02*
X14712920Y-16986484D01*
X14712920Y-16986484D02*
X14731968Y-16976960D01*
X14731968Y-16976960D02*
X14741491Y-16967436D01*
X14741491Y-16967436D02*
X14751015Y-16948389D01*
X14751015Y-16948389D02*
X14751015Y-16910293D01*
X14751015Y-16910293D02*
X14741491Y-16891246D01*
X14741491Y-16891246D02*
X14731968Y-16881722D01*
X14731968Y-16881722D02*
X14712920Y-16872198D01*
X14865301Y-16872198D02*
X14846253Y-16862674D01*
X14846253Y-16862674D02*
X14836729Y-16853150D01*
X14836729Y-16853150D02*
X14827206Y-16834103D01*
X14827206Y-16834103D02*
X14827206Y-16824579D01*
X14827206Y-16824579D02*
X14836729Y-16805531D01*
X14836729Y-16805531D02*
X14846253Y-16796008D01*
X14846253Y-16796008D02*
X14865301Y-16786484D01*
X14865301Y-16786484D02*
X14903396Y-16786484D01*
X14903396Y-16786484D02*
X14922444Y-16796008D01*
X14922444Y-16796008D02*
X14931968Y-16805531D01*
X14931968Y-16805531D02*
X14941491Y-16824579D01*
X14941491Y-16824579D02*
X14941491Y-16834103D01*
X14941491Y-16834103D02*
X14931968Y-16853150D01*
X14931968Y-16853150D02*
X14922444Y-16862674D01*
X14922444Y-16862674D02*
X14903396Y-16872198D01*
X14903396Y-16872198D02*
X14865301Y-16872198D01*
X14865301Y-16872198D02*
X14846253Y-16881722D01*
X14846253Y-16881722D02*
X14836729Y-16891246D01*
X14836729Y-16891246D02*
X14827206Y-16910293D01*
X14827206Y-16910293D02*
X14827206Y-16948389D01*
X14827206Y-16948389D02*
X14836729Y-16967436D01*
X14836729Y-16967436D02*
X14846253Y-16976960D01*
X14846253Y-16976960D02*
X14865301Y-16986484D01*
X14865301Y-16986484D02*
X14903396Y-16986484D01*
X14903396Y-16986484D02*
X14922444Y-16976960D01*
X14922444Y-16976960D02*
X14931968Y-16967436D01*
X14931968Y-16967436D02*
X14941491Y-16948389D01*
X14941491Y-16948389D02*
X14941491Y-16910293D01*
X14941491Y-16910293D02*
X14931968Y-16891246D01*
X14931968Y-16891246D02*
X14922444Y-16881722D01*
X14922444Y-16881722D02*
X14903396Y-16872198D01*
X15179587Y-16986484D02*
X15179587Y-16786484D01*
X15265301Y-16986484D02*
X15265301Y-16881722D01*
X15265301Y-16881722D02*
X15255777Y-16862674D01*
X15255777Y-16862674D02*
X15236730Y-16853150D01*
X15236730Y-16853150D02*
X15208158Y-16853150D01*
X15208158Y-16853150D02*
X15189110Y-16862674D01*
X15189110Y-16862674D02*
X15179587Y-16872198D01*
X15389110Y-16986484D02*
X15370063Y-16976960D01*
X15370063Y-16976960D02*
X15360539Y-16967436D01*
X15360539Y-16967436D02*
X15351015Y-16948389D01*
X15351015Y-16948389D02*
X15351015Y-16891246D01*
X15351015Y-16891246D02*
X15360539Y-16872198D01*
X15360539Y-16872198D02*
X15370063Y-16862674D01*
X15370063Y-16862674D02*
X15389110Y-16853150D01*
X15389110Y-16853150D02*
X15417682Y-16853150D01*
X15417682Y-16853150D02*
X15436730Y-16862674D01*
X15436730Y-16862674D02*
X15446253Y-16872198D01*
X15446253Y-16872198D02*
X15455777Y-16891246D01*
X15455777Y-16891246D02*
X15455777Y-16948389D01*
X15455777Y-16948389D02*
X15446253Y-16967436D01*
X15446253Y-16967436D02*
X15436730Y-16976960D01*
X15436730Y-16976960D02*
X15417682Y-16986484D01*
X15417682Y-16986484D02*
X15389110Y-16986484D01*
X15570063Y-16986484D02*
X15551015Y-16976960D01*
X15551015Y-16976960D02*
X15541491Y-16957912D01*
X15541491Y-16957912D02*
X15541491Y-16786484D01*
X15722444Y-16976960D02*
X15703396Y-16986484D01*
X15703396Y-16986484D02*
X15665301Y-16986484D01*
X15665301Y-16986484D02*
X15646253Y-16976960D01*
X15646253Y-16976960D02*
X15636730Y-16957912D01*
X15636730Y-16957912D02*
X15636730Y-16881722D01*
X15636730Y-16881722D02*
X15646253Y-16862674D01*
X15646253Y-16862674D02*
X15665301Y-16853150D01*
X15665301Y-16853150D02*
X15703396Y-16853150D01*
X15703396Y-16853150D02*
X15722444Y-16862674D01*
X15722444Y-16862674D02*
X15731968Y-16881722D01*
X15731968Y-16881722D02*
X15731968Y-16900770D01*
X15731968Y-16900770D02*
X15636730Y-16919817D01*
X15808158Y-16976960D02*
X15827206Y-16986484D01*
X15827206Y-16986484D02*
X15865301Y-16986484D01*
X15865301Y-16986484D02*
X15884349Y-16976960D01*
X15884349Y-16976960D02*
X15893872Y-16957912D01*
X15893872Y-16957912D02*
X15893872Y-16948389D01*
X15893872Y-16948389D02*
X15884349Y-16929341D01*
X15884349Y-16929341D02*
X15865301Y-16919817D01*
X15865301Y-16919817D02*
X15836730Y-16919817D01*
X15836730Y-16919817D02*
X15817682Y-16910293D01*
X15817682Y-16910293D02*
X15808158Y-16891246D01*
X15808158Y-16891246D02*
X15808158Y-16881722D01*
X15808158Y-16881722D02*
X15817682Y-16862674D01*
X15817682Y-16862674D02*
X15836730Y-16853150D01*
X15836730Y-16853150D02*
X15865301Y-16853150D01*
X15865301Y-16853150D02*
X15884349Y-16862674D01*
X15960539Y-17062674D02*
X15970063Y-17053150D01*
X15970063Y-17053150D02*
X15989111Y-17024579D01*
X15989111Y-17024579D02*
X15998634Y-17005531D01*
X15998634Y-17005531D02*
X16008158Y-16976960D01*
X16008158Y-16976960D02*
X16017682Y-16929341D01*
X16017682Y-16929341D02*
X16017682Y-16891246D01*
X16017682Y-16891246D02*
X16008158Y-16843627D01*
X16008158Y-16843627D02*
X15998634Y-16815055D01*
X15998634Y-16815055D02*
X15989111Y-16796008D01*
X15989111Y-16796008D02*
X15970063Y-16767436D01*
X15970063Y-16767436D02*
X15960539Y-16757912D01*
M02*
