%TF.GenerationSoftware,KiCad,Pcbnew,8.0.2*%
%TF.CreationDate,2024-05-12T23:01:33-04:00*%
%TF.ProjectId,rbmfm,72626d66-6d2e-46b6-9963-61645f706362,rev?*%
%TF.SameCoordinates,Original*%
%TF.FileFunction,Copper,L1,Top*%
%TF.FilePolarity,Positive*%
%FSLAX46Y46*%
G04 Gerber Fmt 4.6, Leading zero omitted, Abs format (unit mm)*
G04 Created by KiCad (PCBNEW 8.0.2) date 2024-05-12 23:01:33*
%MOMM*%
%LPD*%
G01*
G04 APERTURE LIST*
G04 Aperture macros list*
%AMRoundRect*
0 Rectangle with rounded corners*
0 $1 Rounding radius*
0 $2 $3 $4 $5 $6 $7 $8 $9 X,Y pos of 4 corners*
0 Add a 4 corners polygon primitive as box body*
4,1,4,$2,$3,$4,$5,$6,$7,$8,$9,$2,$3,0*
0 Add four circle primitives for the rounded corners*
1,1,$1+$1,$2,$3*
1,1,$1+$1,$4,$5*
1,1,$1+$1,$6,$7*
1,1,$1+$1,$8,$9*
0 Add four rect primitives between the rounded corners*
20,1,$1+$1,$2,$3,$4,$5,0*
20,1,$1+$1,$4,$5,$6,$7,0*
20,1,$1+$1,$6,$7,$8,$9,0*
20,1,$1+$1,$8,$9,$2,$3,0*%
G04 Aperture macros list end*
%TA.AperFunction,ComponentPad*%
%ADD10RoundRect,0.250000X-0.600000X-0.600000X0.600000X-0.600000X0.600000X0.600000X-0.600000X0.600000X0*%
%TD*%
%TA.AperFunction,ComponentPad*%
%ADD11C,1.700000*%
%TD*%
%TA.AperFunction,Conductor*%
%ADD12C,0.250000*%
%TD*%
G04 APERTURE END LIST*
D10*
%TO.P,J1,1,Pin_1*%
%TO.N,Net-(J1-Pin_1)*%
X117750000Y-98470000D03*
D11*
%TO.P,J1,2,Pin_2*%
%TO.N,Net-(J1-Pin_2)*%
X120290000Y-98470000D03*
%TO.P,J1,3,Pin_3*%
%TO.N,Net-(J1-Pin_3)*%
X117750000Y-101010000D03*
%TO.P,J1,4,Pin_4*%
%TO.N,Net-(J1-Pin_4)*%
X120290000Y-101010000D03*
%TO.P,J1,5,Pin_5*%
%TO.N,Net-(J1-Pin_5)*%
X117750000Y-103550000D03*
%TO.P,J1,6,Pin_6*%
%TO.N,Net-(J1-Pin_6)*%
X120290000Y-103550000D03*
%TO.P,J1,7,Pin_7*%
%TO.N,Net-(J1-Pin_7)*%
X117750000Y-106090000D03*
%TO.P,J1,8,Pin_8*%
%TO.N,Net-(J1-Pin_8)*%
X120290000Y-106090000D03*
%TO.P,J1,9,Pin_9*%
%TO.N,Net-(J1-Pin_9)*%
X117750000Y-108630000D03*
%TO.P,J1,10,Pin_10*%
%TO.N,Net-(J1-Pin_10)*%
X120290000Y-108630000D03*
%TO.P,J1,11,Pin_11*%
%TO.N,Net-(J1-Pin_11)*%
X117750000Y-111170000D03*
%TO.P,J1,12,Pin_12*%
%TO.N,Net-(J1-Pin_12)*%
X120290000Y-111170000D03*
%TO.P,J1,13,Pin_13*%
%TO.N,Net-(J1-Pin_13)*%
X117750000Y-113710000D03*
%TO.P,J1,14,Pin_14*%
%TO.N,Net-(J1-Pin_14)*%
X120290000Y-113710000D03*
%TO.P,J1,15,Pin_15*%
%TO.N,Net-(J1-Pin_15)*%
X117750000Y-116250000D03*
%TO.P,J1,16,Pin_16*%
%TO.N,Net-(J1-Pin_16)*%
X120290000Y-116250000D03*
%TO.P,J1,17,Pin_17*%
%TO.N,Net-(J1-Pin_17)*%
X117750000Y-118790000D03*
%TO.P,J1,18,Pin_18*%
%TO.N,Net-(J1-Pin_18)*%
X120290000Y-118790000D03*
%TO.P,J1,19,Pin_19*%
%TO.N,Net-(J1-Pin_19)*%
X117750000Y-121330000D03*
%TO.P,J1,20,Pin_20*%
%TO.N,Net-(J1-Pin_20)*%
X120290000Y-121330000D03*
%TO.P,J1,21,Pin_21*%
%TO.N,Net-(J1-Pin_21)*%
X117750000Y-123870000D03*
%TO.P,J1,22,Pin_22*%
%TO.N,Net-(J1-Pin_22)*%
X120290000Y-123870000D03*
%TO.P,J1,23,Pin_23*%
%TO.N,Net-(J1-Pin_23)*%
X117750000Y-126410000D03*
%TO.P,J1,24,Pin_24*%
%TO.N,Net-(J1-Pin_24)*%
X120290000Y-126410000D03*
%TO.P,J1,25,Pin_25*%
%TO.N,Net-(J1-Pin_25)*%
X117750000Y-128950000D03*
%TO.P,J1,26,Pin_26*%
%TO.N,Net-(J1-Pin_26)*%
X120290000Y-128950000D03*
%TO.P,J1,27,Pin_27*%
%TO.N,Net-(J1-Pin_27)*%
X117750000Y-131490000D03*
%TO.P,J1,28,Pin_28*%
%TO.N,Net-(J1-Pin_28)*%
X120290000Y-131490000D03*
%TO.P,J1,29,Pin_29*%
%TO.N,Net-(J1-Pin_29)*%
X117750000Y-134030000D03*
%TO.P,J1,30,Pin_30*%
%TO.N,Net-(J1-Pin_30)*%
X120290000Y-134030000D03*
%TO.P,J1,31,Pin_31*%
%TO.N,unconnected-(J1-Pin_31-Pad31)*%
X117750000Y-136570000D03*
%TO.P,J1,32,Pin_32*%
%TO.N,unconnected-(J1-Pin_32-Pad32)*%
X120290000Y-136570000D03*
%TO.P,J1,33,Pin_33*%
%TO.N,unconnected-(J1-Pin_33-Pad33)*%
X117750000Y-139110000D03*
%TO.P,J1,34,Pin_34*%
%TO.N,unconnected-(J1-Pin_34-Pad34)*%
X120290000Y-139110000D03*
%TD*%
D10*
%TO.P,J3,1,Pin_1*%
%TO.N,unconnected-(J3-Pin_1-Pad1)*%
X151710000Y-129840000D03*
D11*
%TO.P,J3,2,Pin_2*%
%TO.N,unconnected-(J3-Pin_2-Pad2)*%
X154250000Y-129840000D03*
%TO.P,J3,3,Pin_3*%
%TO.N,unconnected-(J3-Pin_3-Pad3)*%
X151710000Y-132380000D03*
%TO.P,J3,4,Pin_4*%
%TO.N,unconnected-(J3-Pin_4-Pad4)*%
X154250000Y-132380000D03*
%TO.P,J3,5,Pin_5*%
%TO.N,unconnected-(J3-Pin_5-Pad5)*%
X151710000Y-134920000D03*
%TO.P,J3,6,Pin_6*%
%TO.N,unconnected-(J3-Pin_6-Pad6)*%
X154250000Y-134920000D03*
%TO.P,J3,7,Pin_7*%
%TO.N,unconnected-(J3-Pin_7-Pad7)*%
X151710000Y-137460000D03*
%TO.P,J3,8,Pin_8*%
%TO.N,unconnected-(J3-Pin_8-Pad8)*%
X154250000Y-137460000D03*
%TO.P,J3,9,Pin_9*%
%TO.N,unconnected-(J3-Pin_9-Pad9)*%
X151710000Y-140000000D03*
%TO.P,J3,10,Pin_10*%
%TO.N,unconnected-(J3-Pin_10-Pad10)*%
X154250000Y-140000000D03*
%TO.P,J3,11,Pin_11*%
%TO.N,unconnected-(J3-Pin_11-Pad11)*%
X151710000Y-142540000D03*
%TO.P,J3,12,Pin_12*%
%TO.N,unconnected-(J3-Pin_12-Pad12)*%
X154250000Y-142540000D03*
%TO.P,J3,13,Pin_13*%
%TO.N,Net-(J1-Pin_27)*%
X151710000Y-145080000D03*
%TO.P,J3,14,Pin_14*%
%TO.N,Net-(J1-Pin_28)*%
X154250000Y-145080000D03*
%TO.P,J3,15,Pin_15*%
%TO.N,unconnected-(J3-Pin_15-Pad15)*%
X151710000Y-147620000D03*
%TO.P,J3,16,Pin_16*%
%TO.N,unconnected-(J3-Pin_16-Pad16)*%
X154250000Y-147620000D03*
%TO.P,J3,17,Pin_17*%
%TO.N,Net-(J1-Pin_29)*%
X151710000Y-150160000D03*
%TO.P,J3,18,Pin_18*%
%TO.N,Net-(J1-Pin_30)*%
X154250000Y-150160000D03*
%TO.P,J3,19,Pin_19*%
%TO.N,unconnected-(J3-Pin_19-Pad19)*%
X151710000Y-152700000D03*
%TO.P,J3,20,Pin_20*%
%TO.N,unconnected-(J3-Pin_20-Pad20)*%
X154250000Y-152700000D03*
%TD*%
D10*
%TO.P,J2,1,Pin_1*%
%TO.N,Net-(J1-Pin_1)*%
X151460000Y-70610000D03*
D11*
%TO.P,J2,2,Pin_2*%
%TO.N,Net-(J1-Pin_2)*%
X154000000Y-70610000D03*
%TO.P,J2,3,Pin_3*%
%TO.N,Net-(J1-Pin_3)*%
X151460000Y-73150000D03*
%TO.P,J2,4,Pin_4*%
%TO.N,Net-(J1-Pin_4)*%
X154000000Y-73150000D03*
%TO.P,J2,5,Pin_5*%
%TO.N,Net-(J1-Pin_5)*%
X151460000Y-75690000D03*
%TO.P,J2,6,Pin_6*%
%TO.N,Net-(J1-Pin_6)*%
X154000000Y-75690000D03*
%TO.P,J2,7,Pin_7*%
%TO.N,Net-(J1-Pin_7)*%
X151460000Y-78230000D03*
%TO.P,J2,8,Pin_8*%
%TO.N,Net-(J1-Pin_8)*%
X154000000Y-78230000D03*
%TO.P,J2,9,Pin_9*%
%TO.N,Net-(J1-Pin_9)*%
X151460000Y-80770000D03*
%TO.P,J2,10,Pin_10*%
%TO.N,Net-(J1-Pin_10)*%
X154000000Y-80770000D03*
%TO.P,J2,11,Pin_11*%
%TO.N,Net-(J1-Pin_11)*%
X151460000Y-83310000D03*
%TO.P,J2,12,Pin_12*%
%TO.N,Net-(J1-Pin_12)*%
X154000000Y-83310000D03*
%TO.P,J2,13,Pin_13*%
%TO.N,Net-(J1-Pin_13)*%
X151460000Y-85850000D03*
%TO.P,J2,14,Pin_14*%
%TO.N,Net-(J1-Pin_14)*%
X154000000Y-85850000D03*
%TO.P,J2,15,Pin_15*%
%TO.N,unconnected-(J2-Pin_15-Pad15)*%
X151460000Y-88390000D03*
%TO.P,J2,16,Pin_16*%
%TO.N,unconnected-(J2-Pin_16-Pad16)*%
X154000000Y-88390000D03*
%TO.P,J2,17,Pin_17*%
%TO.N,Net-(J1-Pin_17)*%
X151460000Y-90930000D03*
%TO.P,J2,18,Pin_18*%
%TO.N,Net-(J1-Pin_18)*%
X154000000Y-90930000D03*
%TO.P,J2,19,Pin_19*%
%TO.N,Net-(J1-Pin_19)*%
X151460000Y-93470000D03*
%TO.P,J2,20,Pin_20*%
%TO.N,Net-(J1-Pin_20)*%
X154000000Y-93470000D03*
%TO.P,J2,21,Pin_21*%
%TO.N,Net-(J1-Pin_21)*%
X151460000Y-96010000D03*
%TO.P,J2,22,Pin_22*%
%TO.N,Net-(J1-Pin_22)*%
X154000000Y-96010000D03*
%TO.P,J2,23,Pin_23*%
%TO.N,Net-(J1-Pin_23)*%
X151460000Y-98550000D03*
%TO.P,J2,24,Pin_24*%
%TO.N,Net-(J1-Pin_24)*%
X154000000Y-98550000D03*
%TO.P,J2,25,Pin_25*%
%TO.N,Net-(J1-Pin_25)*%
X151460000Y-101090000D03*
%TO.P,J2,26,Pin_26*%
%TO.N,Net-(J1-Pin_26)*%
X154000000Y-101090000D03*
%TO.P,J2,27,Pin_27*%
%TO.N,unconnected-(J2-Pin_27-Pad27)*%
X151460000Y-103630000D03*
%TO.P,J2,28,Pin_28*%
%TO.N,unconnected-(J2-Pin_28-Pad28)*%
X154000000Y-103630000D03*
%TO.P,J2,29,Pin_29*%
%TO.N,unconnected-(J2-Pin_29-Pad29)*%
X151460000Y-106170000D03*
%TO.P,J2,30,Pin_30*%
%TO.N,unconnected-(J2-Pin_30-Pad30)*%
X154000000Y-106170000D03*
%TO.P,J2,31,Pin_31*%
%TO.N,unconnected-(J2-Pin_31-Pad31)*%
X151460000Y-108710000D03*
%TO.P,J2,32,Pin_32*%
%TO.N,unconnected-(J2-Pin_32-Pad32)*%
X154000000Y-108710000D03*
%TO.P,J2,33,Pin_33*%
%TO.N,Net-(J1-Pin_15)*%
X151460000Y-111250000D03*
%TO.P,J2,34,Pin_34*%
%TO.N,Net-(J1-Pin_16)*%
X154000000Y-111250000D03*
%TD*%
D12*
%TO.N,Net-(J1-Pin_1)*%
X151460000Y-70610000D02*
X145610000Y-70610000D01*
X145610000Y-70610000D02*
X117750000Y-98470000D01*
%TO.N,Net-(J1-Pin_2)*%
X146975000Y-71785000D02*
X120290000Y-98470000D01*
X154000000Y-70610000D02*
X152825000Y-71785000D01*
X152825000Y-71785000D02*
X146975000Y-71785000D01*
%TO.N,Net-(J1-Pin_3)*%
X118925000Y-99835000D02*
X117750000Y-101010000D01*
X151460000Y-73150000D02*
X124775000Y-99835000D01*
X124775000Y-99835000D02*
X118925000Y-99835000D01*
%TO.N,Net-(J1-Pin_4)*%
X124236396Y-101010000D02*
X120290000Y-101010000D01*
X152825000Y-74325000D02*
X150921396Y-74325000D01*
X150921396Y-74325000D02*
X124236396Y-101010000D01*
X154000000Y-73150000D02*
X152825000Y-74325000D01*
%TO.N,Net-(J1-Pin_5)*%
X151460000Y-75690000D02*
X124965000Y-102185000D01*
X119115000Y-102185000D02*
X117750000Y-103550000D01*
X124965000Y-102185000D02*
X119115000Y-102185000D01*
%TO.N,Net-(J1-Pin_6)*%
X152635000Y-77055000D02*
X150731396Y-77055000D01*
X154000000Y-75690000D02*
X152635000Y-77055000D01*
X150731396Y-77055000D02*
X124236396Y-103550000D01*
X124236396Y-103550000D02*
X120290000Y-103550000D01*
%TO.N,Net-(J1-Pin_7)*%
X119115000Y-104725000D02*
X117750000Y-106090000D01*
X151460000Y-78230000D02*
X124965000Y-104725000D01*
X124965000Y-104725000D02*
X119115000Y-104725000D01*
%TO.N,Net-(J1-Pin_8)*%
X154000000Y-78230000D02*
X152635000Y-79595000D01*
X152635000Y-79595000D02*
X150905000Y-79595000D01*
X150905000Y-79595000D02*
X124410000Y-106090000D01*
X124410000Y-106090000D02*
X120290000Y-106090000D01*
%TO.N,Net-(J1-Pin_9)*%
X124965000Y-107265000D02*
X119115000Y-107265000D01*
X151460000Y-80770000D02*
X124965000Y-107265000D01*
X119115000Y-107265000D02*
X117750000Y-108630000D01*
%TO.N,Net-(J1-Pin_10)*%
X154000000Y-80770000D02*
X152635000Y-82135000D01*
X124236396Y-108630000D02*
X120290000Y-108630000D01*
X152635000Y-82135000D02*
X150731396Y-82135000D01*
X150731396Y-82135000D02*
X124236396Y-108630000D01*
%TO.N,Net-(J1-Pin_11)*%
X124965000Y-109805000D02*
X119115000Y-109805000D01*
X119115000Y-109805000D02*
X117750000Y-111170000D01*
X151460000Y-83310000D02*
X124965000Y-109805000D01*
%TO.N,Net-(J1-Pin_12)*%
X124478299Y-111170000D02*
X120290000Y-111170000D01*
X152635000Y-84675000D02*
X150973299Y-84675000D01*
X150973299Y-84675000D02*
X124478299Y-111170000D01*
X154000000Y-83310000D02*
X152635000Y-84675000D01*
%TO.N,Net-(J1-Pin_13)*%
X124965000Y-112345000D02*
X119115000Y-112345000D01*
X151460000Y-85850000D02*
X124965000Y-112345000D01*
X119115000Y-112345000D02*
X117750000Y-113710000D01*
%TO.N,Net-(J1-Pin_14)*%
X124290000Y-113710000D02*
X120290000Y-113710000D01*
X150785000Y-87215000D02*
X124290000Y-113710000D01*
X154000000Y-85850000D02*
X152635000Y-87215000D01*
X152635000Y-87215000D02*
X150785000Y-87215000D01*
%TO.N,Net-(J1-Pin_15)*%
X147635000Y-115075000D02*
X151460000Y-111250000D01*
X118925000Y-115075000D02*
X147635000Y-115075000D01*
X117750000Y-116250000D02*
X118925000Y-115075000D01*
%TO.N,Net-(J1-Pin_16)*%
X120290000Y-116250000D02*
X149000000Y-116250000D01*
X149000000Y-116250000D02*
X154000000Y-111250000D01*
%TO.N,Net-(J1-Pin_27)*%
X139295000Y-132665000D02*
X151710000Y-145080000D01*
X118925000Y-132665000D02*
X139295000Y-132665000D01*
X117750000Y-131490000D02*
X118925000Y-132665000D01*
%TO.N,Net-(J1-Pin_28)*%
X120290000Y-131490000D02*
X138808299Y-131490000D01*
X151223299Y-143905000D02*
X153075000Y-143905000D01*
X138808299Y-131490000D02*
X151223299Y-143905000D01*
X153075000Y-143905000D02*
X154250000Y-145080000D01*
%TO.N,Net-(J1-Pin_29)*%
X136755000Y-135205000D02*
X151710000Y-150160000D01*
X117750000Y-134030000D02*
X118925000Y-135205000D01*
X118925000Y-135205000D02*
X136755000Y-135205000D01*
%TO.N,Net-(J1-Pin_30)*%
X151223299Y-148985000D02*
X153075000Y-148985000D01*
X153075000Y-148985000D02*
X154250000Y-150160000D01*
X120290000Y-134030000D02*
X136268299Y-134030000D01*
X136268299Y-134030000D02*
X151223299Y-148985000D01*
%TD*%
M02*
