%TF.GenerationSoftware,KiCad,Pcbnew,8.0.2*%
%TF.CreationDate,2024-05-12T23:01:33-04:00*%
%TF.ProjectId,rbmfm,72626d66-6d2e-46b6-9963-61645f706362,rev?*%
%TF.SameCoordinates,Original*%
%TF.FileFunction,Legend,Top*%
%TF.FilePolarity,Positive*%
%FSLAX46Y46*%
G04 Gerber Fmt 4.6, Leading zero omitted, Abs format (unit mm)*
G04 Created by KiCad (PCBNEW 8.0.2) date 2024-05-12 23:01:33*
%MOMM*%
%LPD*%
G01*
G04 APERTURE LIST*
%ADD10C,0.150000*%
%ADD11C,0.120000*%
G04 APERTURE END LIST*
D10*
X116908207Y-89869819D02*
X116574874Y-89393628D01*
X116336779Y-89869819D02*
X116336779Y-88869819D01*
X116336779Y-88869819D02*
X116717731Y-88869819D01*
X116717731Y-88869819D02*
X116812969Y-88917438D01*
X116812969Y-88917438D02*
X116860588Y-88965057D01*
X116860588Y-88965057D02*
X116908207Y-89060295D01*
X116908207Y-89060295D02*
X116908207Y-89203152D01*
X116908207Y-89203152D02*
X116860588Y-89298390D01*
X116860588Y-89298390D02*
X116812969Y-89346009D01*
X116812969Y-89346009D02*
X116717731Y-89393628D01*
X116717731Y-89393628D02*
X116336779Y-89393628D01*
X117765350Y-89869819D02*
X117765350Y-89346009D01*
X117765350Y-89346009D02*
X117717731Y-89250771D01*
X117717731Y-89250771D02*
X117622493Y-89203152D01*
X117622493Y-89203152D02*
X117432017Y-89203152D01*
X117432017Y-89203152D02*
X117336779Y-89250771D01*
X117765350Y-89822200D02*
X117670112Y-89869819D01*
X117670112Y-89869819D02*
X117432017Y-89869819D01*
X117432017Y-89869819D02*
X117336779Y-89822200D01*
X117336779Y-89822200D02*
X117289160Y-89726961D01*
X117289160Y-89726961D02*
X117289160Y-89631723D01*
X117289160Y-89631723D02*
X117336779Y-89536485D01*
X117336779Y-89536485D02*
X117432017Y-89488866D01*
X117432017Y-89488866D02*
X117670112Y-89488866D01*
X117670112Y-89488866D02*
X117765350Y-89441247D01*
X118241541Y-89869819D02*
X118241541Y-89203152D01*
X118241541Y-88869819D02*
X118193922Y-88917438D01*
X118193922Y-88917438D02*
X118241541Y-88965057D01*
X118241541Y-88965057D02*
X118289160Y-88917438D01*
X118289160Y-88917438D02*
X118241541Y-88869819D01*
X118241541Y-88869819D02*
X118241541Y-88965057D01*
X118717731Y-89203152D02*
X118717731Y-89869819D01*
X118717731Y-89298390D02*
X118765350Y-89250771D01*
X118765350Y-89250771D02*
X118860588Y-89203152D01*
X118860588Y-89203152D02*
X119003445Y-89203152D01*
X119003445Y-89203152D02*
X119098683Y-89250771D01*
X119098683Y-89250771D02*
X119146302Y-89346009D01*
X119146302Y-89346009D02*
X119146302Y-89869819D01*
X119622493Y-89869819D02*
X119622493Y-88869819D01*
X119622493Y-89250771D02*
X119717731Y-89203152D01*
X119717731Y-89203152D02*
X119908207Y-89203152D01*
X119908207Y-89203152D02*
X120003445Y-89250771D01*
X120003445Y-89250771D02*
X120051064Y-89298390D01*
X120051064Y-89298390D02*
X120098683Y-89393628D01*
X120098683Y-89393628D02*
X120098683Y-89679342D01*
X120098683Y-89679342D02*
X120051064Y-89774580D01*
X120051064Y-89774580D02*
X120003445Y-89822200D01*
X120003445Y-89822200D02*
X119908207Y-89869819D01*
X119908207Y-89869819D02*
X119717731Y-89869819D01*
X119717731Y-89869819D02*
X119622493Y-89822200D01*
X120670112Y-89869819D02*
X120574874Y-89822200D01*
X120574874Y-89822200D02*
X120527255Y-89774580D01*
X120527255Y-89774580D02*
X120479636Y-89679342D01*
X120479636Y-89679342D02*
X120479636Y-89393628D01*
X120479636Y-89393628D02*
X120527255Y-89298390D01*
X120527255Y-89298390D02*
X120574874Y-89250771D01*
X120574874Y-89250771D02*
X120670112Y-89203152D01*
X120670112Y-89203152D02*
X120812969Y-89203152D01*
X120812969Y-89203152D02*
X120908207Y-89250771D01*
X120908207Y-89250771D02*
X120955826Y-89298390D01*
X120955826Y-89298390D02*
X121003445Y-89393628D01*
X121003445Y-89393628D02*
X121003445Y-89679342D01*
X121003445Y-89679342D02*
X120955826Y-89774580D01*
X120955826Y-89774580D02*
X120908207Y-89822200D01*
X120908207Y-89822200D02*
X120812969Y-89869819D01*
X120812969Y-89869819D02*
X120670112Y-89869819D01*
X121336779Y-89203152D02*
X121527255Y-89869819D01*
X121527255Y-89869819D02*
X121717731Y-89393628D01*
X121717731Y-89393628D02*
X121908207Y-89869819D01*
X121908207Y-89869819D02*
X122098683Y-89203152D01*
X118686666Y-91824819D02*
X118686666Y-92539104D01*
X118686666Y-92539104D02*
X118639047Y-92681961D01*
X118639047Y-92681961D02*
X118543809Y-92777200D01*
X118543809Y-92777200D02*
X118400952Y-92824819D01*
X118400952Y-92824819D02*
X118305714Y-92824819D01*
X119686666Y-92824819D02*
X119115238Y-92824819D01*
X119400952Y-92824819D02*
X119400952Y-91824819D01*
X119400952Y-91824819D02*
X119305714Y-91967676D01*
X119305714Y-91967676D02*
X119210476Y-92062914D01*
X119210476Y-92062914D02*
X119115238Y-92110533D01*
X152646666Y-123194819D02*
X152646666Y-123909104D01*
X152646666Y-123909104D02*
X152599047Y-124051961D01*
X152599047Y-124051961D02*
X152503809Y-124147200D01*
X152503809Y-124147200D02*
X152360952Y-124194819D01*
X152360952Y-124194819D02*
X152265714Y-124194819D01*
X153027619Y-123194819D02*
X153646666Y-123194819D01*
X153646666Y-123194819D02*
X153313333Y-123575771D01*
X153313333Y-123575771D02*
X153456190Y-123575771D01*
X153456190Y-123575771D02*
X153551428Y-123623390D01*
X153551428Y-123623390D02*
X153599047Y-123671009D01*
X153599047Y-123671009D02*
X153646666Y-123766247D01*
X153646666Y-123766247D02*
X153646666Y-124004342D01*
X153646666Y-124004342D02*
X153599047Y-124099580D01*
X153599047Y-124099580D02*
X153551428Y-124147200D01*
X153551428Y-124147200D02*
X153456190Y-124194819D01*
X153456190Y-124194819D02*
X153170476Y-124194819D01*
X153170476Y-124194819D02*
X153075238Y-124147200D01*
X153075238Y-124147200D02*
X153027619Y-124099580D01*
X152396666Y-63964819D02*
X152396666Y-64679104D01*
X152396666Y-64679104D02*
X152349047Y-64821961D01*
X152349047Y-64821961D02*
X152253809Y-64917200D01*
X152253809Y-64917200D02*
X152110952Y-64964819D01*
X152110952Y-64964819D02*
X152015714Y-64964819D01*
X152825238Y-64060057D02*
X152872857Y-64012438D01*
X152872857Y-64012438D02*
X152968095Y-63964819D01*
X152968095Y-63964819D02*
X153206190Y-63964819D01*
X153206190Y-63964819D02*
X153301428Y-64012438D01*
X153301428Y-64012438D02*
X153349047Y-64060057D01*
X153349047Y-64060057D02*
X153396666Y-64155295D01*
X153396666Y-64155295D02*
X153396666Y-64250533D01*
X153396666Y-64250533D02*
X153349047Y-64393390D01*
X153349047Y-64393390D02*
X152777619Y-64964819D01*
X152777619Y-64964819D02*
X153396666Y-64964819D01*
D11*
%TO.C,J1*%
X113070000Y-97970000D02*
X113070000Y-98970000D01*
X113070000Y-98970000D02*
X114070000Y-98470000D01*
X114070000Y-98470000D02*
X113070000Y-97970000D01*
X114460000Y-93260000D02*
X123580000Y-93260000D01*
X114460000Y-116740000D02*
X115770000Y-116740000D01*
X114460000Y-144320000D02*
X114460000Y-93260000D01*
X115770000Y-94560000D02*
X122270000Y-94560000D01*
X115770000Y-116740000D02*
X115770000Y-94560000D01*
X115770000Y-120840000D02*
X114460000Y-120840000D01*
X115770000Y-120840000D02*
X115770000Y-120840000D01*
X115770000Y-143020000D02*
X115770000Y-120840000D01*
X122270000Y-94560000D02*
X122270000Y-143020000D01*
X122270000Y-143020000D02*
X115770000Y-143020000D01*
X123580000Y-93260000D02*
X123580000Y-144320000D01*
X123580000Y-144320000D02*
X114460000Y-144320000D01*
%TO.C,J3*%
X147030000Y-129340000D02*
X147030000Y-130340000D01*
X147030000Y-130340000D02*
X148030000Y-129840000D01*
X148030000Y-129840000D02*
X147030000Y-129340000D01*
X148420000Y-124630000D02*
X157540000Y-124630000D01*
X148420000Y-139220000D02*
X149730000Y-139220000D01*
X148420000Y-157910000D02*
X148420000Y-124630000D01*
X149730000Y-125930000D02*
X156230000Y-125930000D01*
X149730000Y-139220000D02*
X149730000Y-125930000D01*
X149730000Y-143320000D02*
X148420000Y-143320000D01*
X149730000Y-143320000D02*
X149730000Y-143320000D01*
X149730000Y-156610000D02*
X149730000Y-143320000D01*
X156230000Y-125930000D02*
X156230000Y-156610000D01*
X156230000Y-156610000D02*
X149730000Y-156610000D01*
X157540000Y-124630000D02*
X157540000Y-157910000D01*
X157540000Y-157910000D02*
X148420000Y-157910000D01*
%TO.C,J2*%
X146780000Y-70110000D02*
X146780000Y-71110000D01*
X146780000Y-71110000D02*
X147780000Y-70610000D01*
X147780000Y-70610000D02*
X146780000Y-70110000D01*
X148170000Y-65400000D02*
X157290000Y-65400000D01*
X148170000Y-88880000D02*
X149480000Y-88880000D01*
X148170000Y-116460000D02*
X148170000Y-65400000D01*
X149480000Y-66700000D02*
X155980000Y-66700000D01*
X149480000Y-88880000D02*
X149480000Y-66700000D01*
X149480000Y-92980000D02*
X148170000Y-92980000D01*
X149480000Y-92980000D02*
X149480000Y-92980000D01*
X149480000Y-115160000D02*
X149480000Y-92980000D01*
X155980000Y-66700000D02*
X155980000Y-115160000D01*
X155980000Y-115160000D02*
X149480000Y-115160000D01*
X157290000Y-65400000D02*
X157290000Y-116460000D01*
X157290000Y-116460000D02*
X148170000Y-116460000D01*
%TD*%
M02*
