M48
; DRILL file {KiCad 8.0.2} date 2024-05-12T23:01:21-0400
; FORMAT={-:-/ absolute / inch / decimal}
; #@! TF.CreationDate,2024-05-12T23:01:21-04:00
; #@! TF.GenerationSoftware,Kicad,Pcbnew,8.0.2
; #@! TF.FileFunction,Plated,1,2,PTH
FMAT,2
INCH
; #@! TA.AperFunction,Plated,PTH,ComponentDrill
T1C0.0394
%
G90
G05
T1
X4.6358Y-3.8768
X4.6358Y-3.9768
X4.6358Y-4.0768
X4.6358Y-4.1768
X4.6358Y-4.2768
X4.6358Y-4.3768
X4.6358Y-4.4768
X4.6358Y-4.5768
X4.6358Y-4.6768
X4.6358Y-4.7768
X4.6358Y-4.8768
X4.6358Y-4.9768
X4.6358Y-5.0768
X4.6358Y-5.1768
X4.6358Y-5.2768
X4.6358Y-5.3768
X4.6358Y-5.4768
X4.7358Y-3.8768
X4.7358Y-3.9768
X4.7358Y-4.0768
X4.7358Y-4.1768
X4.7358Y-4.2768
X4.7358Y-4.3768
X4.7358Y-4.4768
X4.7358Y-4.5768
X4.7358Y-4.6768
X4.7358Y-4.7768
X4.7358Y-4.8768
X4.7358Y-4.9768
X4.7358Y-5.0768
X4.7358Y-5.1768
X4.7358Y-5.2768
X4.7358Y-5.3768
X4.7358Y-5.4768
X5.963Y-2.7799
X5.963Y-2.8799
X5.963Y-2.9799
X5.963Y-3.0799
X5.963Y-3.1799
X5.963Y-3.2799
X5.963Y-3.3799
X5.963Y-3.4799
X5.963Y-3.5799
X5.963Y-3.6799
X5.963Y-3.7799
X5.963Y-3.8799
X5.963Y-3.9799
X5.963Y-4.0799
X5.963Y-4.1799
X5.963Y-4.2799
X5.963Y-4.3799
X5.9728Y-5.1118
X5.9728Y-5.2118
X5.9728Y-5.3118
X5.9728Y-5.4118
X5.9728Y-5.5118
X5.9728Y-5.6118
X5.9728Y-5.7118
X5.9728Y-5.8118
X5.9728Y-5.9118
X5.9728Y-6.0118
X6.063Y-2.7799
X6.063Y-2.8799
X6.063Y-2.9799
X6.063Y-3.0799
X6.063Y-3.1799
X6.063Y-3.2799
X6.063Y-3.3799
X6.063Y-3.4799
X6.063Y-3.5799
X6.063Y-3.6799
X6.063Y-3.7799
X6.063Y-3.8799
X6.063Y-3.9799
X6.063Y-4.0799
X6.063Y-4.1799
X6.063Y-4.2799
X6.063Y-4.3799
X6.0728Y-5.1118
X6.0728Y-5.2118
X6.0728Y-5.3118
X6.0728Y-5.4118
X6.0728Y-5.5118
X6.0728Y-5.6118
X6.0728Y-5.7118
X6.0728Y-5.8118
X6.0728Y-5.9118
X6.0728Y-6.0118
M30
